<svg width="117" height="87" viewBox="0 0 117 87" fill="none" xmlns="http://www.w3.org/2000/svg">
<path d="M12.205 61.75C12.205 62.5417 11.9342 63.125 11.3925 63.5C10.8925 63.9167 10.33 64.125 9.705 64.125C9.08 64.125 8.49667 63.9167 7.955 63.5C7.455 63.125 7.205 62.5417 7.205 61.75C7.205 55.0833 7.28834 48.4583 7.455 41.875C7.62167 35.25 8.0175 28.625 8.6425 22C8.72584 21.2917 8.97584 20.7292 9.3925 20.3125C9.85084 19.8958 10.33 19.6667 10.83 19.625C11.3717 19.5417 11.8925 19.6458 12.3925 19.9375C12.9342 20.1875 13.33 20.6458 13.58 21.3125C14.4133 23.6875 15.1842 26.0833 15.8925 28.5C16.6008 30.875 17.2883 33.2708 17.955 35.6875C18.6633 38.1042 19.3717 40.5208 20.08 42.9375C20.83 45.3125 21.6425 47.6667 22.5175 50C24.6842 44.5417 26.6425 39.0625 28.3925 33.5625C30.1842 28.0625 31.6217 22.4167 32.705 16.625C32.83 16 33.1217 15.5417 33.58 15.25C34.0383 14.9583 34.5383 14.8125 35.08 14.8125C35.6633 14.8125 36.1842 14.9583 36.6425 15.25C37.1008 15.5417 37.3925 16 37.5175 16.625C37.8508 18.5 37.955 20.3542 37.83 22.1875C37.7467 23.9792 37.705 25.8125 37.705 27.6875C37.705 29.6875 37.8092 31.6458 38.0175 33.5625C38.2675 35.4792 38.4758 37.4167 38.6425 39.375C38.9758 43.2917 39.2258 47.2083 39.3925 51.125C39.5592 55.0417 39.705 58.9583 39.83 62.875C39.83 63.7083 39.58 64.3125 39.08 64.6875C38.58 65.1042 38.0175 65.3125 37.3925 65.3125C36.7675 65.3125 36.1842 65.1042 35.6425 64.6875C35.1008 64.3125 34.83 63.7083 34.83 62.875C34.7467 58.9583 34.6008 55.0417 34.3925 51.125C34.2258 47.2083 33.9758 43.2917 33.6425 39.375C33.5592 38.6667 33.4758 37.9375 33.3925 37.1875C33.3508 36.4375 33.2883 35.7083 33.205 35C31.9967 38.7917 30.6842 42.5208 29.2675 46.1875C27.8925 49.8542 26.455 53.5208 24.955 57.1875C24.7467 57.6875 24.4342 58.125 24.0175 58.5C23.6425 58.8333 23.1633 59 22.58 59C22.1633 59 21.7467 58.8958 21.33 58.6875C20.9133 58.4375 20.6008 58.125 20.3925 57.75C18.7258 54.0833 17.3092 50.3542 16.1425 46.5625C14.9758 42.7708 13.83 38.9375 12.705 35.0625C12.4967 39.5208 12.3508 43.9792 12.2675 48.4375C12.2258 52.8542 12.205 57.2917 12.205 61.75ZM48.75 25.375C47.9167 25.125 47.4167 24.5833 47.25 23.75C47.0417 23.1667 47.1042 22.5417 47.4375 21.875C47.7708 21.1667 48.2917 20.7708 49 20.6875C53.0417 20.0625 57.0833 19.7292 61.125 19.6875C65.2083 19.6042 69.2917 19.5417 73.375 19.5C74.1667 19.5 74.7708 19.75 75.1875 20.25C75.6042 20.75 75.8125 21.3125 75.8125 21.9375C75.8125 22.5625 75.6042 23.1458 75.1875 23.6875C74.7708 24.1875 74.1667 24.4375 73.375 24.4375C70.125 24.5208 66.8542 24.5625 63.5625 24.5625C60.2708 24.5625 56.9792 24.7292 53.6875 25.0625C53.7708 26.7292 53.875 28.3958 54 30.0625C54.125 31.6875 54.25 33.3333 54.375 35C57.5417 34.8333 60.6875 34.625 63.8125 34.375C66.9792 34.125 70.1458 34.0833 73.3125 34.25C74.1042 34.2917 74.7083 34.5833 75.125 35.125C75.5417 35.6667 75.75 36.25 75.75 36.875C75.75 37.5 75.5417 38.0625 75.125 38.5625C74.7083 39.0625 74.1042 39.2917 73.3125 39.25C70.1875 39.0833 67.0833 39.125 64 39.375C60.9583 39.625 57.875 39.8333 54.75 40C55 43 55.2292 46 55.4375 49C55.6875 51.9583 55.8542 54.9375 55.9375 57.9375C57.3958 57.6042 58.875 57.2917 60.375 57C61.875 56.6667 63.375 56.4167 64.875 56.25C66.375 56.0417 67.875 55.9375 69.375 55.9375C70.875 55.9375 72.375 56.0625 73.875 56.3125C74.5417 56.4375 75.0417 56.8333 75.375 57.5C75.7083 58.1667 75.7917 58.7917 75.625 59.375C75.4167 60.0833 75.0208 60.5833 74.4375 60.875C73.8542 61.1667 73.2083 61.25 72.5 61.125C71.1667 60.875 69.8125 60.7917 68.4375 60.875C67.0625 60.9583 65.7083 61.1042 64.375 61.3125C62.8333 61.5625 61.2917 61.8542 59.75 62.1875C58.25 62.5208 56.75 62.875 55.25 63.25C54.5417 63.4167 53.875 63.2917 53.25 62.875C52.6667 62.7917 52.1458 62.5625 51.6875 62.1875C51.2292 61.8125 51 61.25 51 60.5C50.9167 56.9583 50.75 53.4583 50.5 50C50.2917 46.5417 50.0417 43.0625 49.75 39.5625C49.2917 39.1042 49.0208 38.5417 48.9375 37.875C48.8958 37.1667 49.0833 36.5625 49.5 36.0625C49.1667 32.5208 48.9167 28.9583 48.75 25.375ZM66.1875 4.5625C66.7292 4.14583 67.3125 3.91667 67.9375 3.875C68.5625 3.79167 69.1458 4.02083 69.6875 4.5625C70.1458 5.02083 70.3958 5.625 70.4375 6.375C70.4792 7.08333 70.2292 7.66667 69.6875 8.125C66.6875 10.4167 63.5625 12.3958 60.3125 14.0625C59.6042 14.4375 58.9375 14.5 58.3125 14.25C57.6875 13.9583 57.2083 13.5417 56.875 13C56.5833 12.4583 56.4792 11.875 56.5625 11.25C56.6458 10.625 57.0417 10.125 57.75 9.75C59.25 9 60.6875 8.20833 62.0625 7.375C63.4792 6.54167 64.8542 5.60417 66.1875 4.5625ZM109.857 51.125C110.482 50.9167 111.087 51 111.67 51.375C112.295 51.75 112.712 52.25 112.92 52.875C113.128 53.5833 113.045 54.2292 112.67 54.8125C112.295 55.3542 111.795 55.7292 111.17 55.9375C108.878 56.7708 106.628 57.6667 104.42 58.625C102.212 59.5417 99.92 60.3125 97.545 60.9375C96.3783 61.2708 95.1908 61.5417 93.9825 61.75C92.7742 61.9167 91.5658 62 90.3575 62C89.1908 62 88.0242 61.8542 86.8575 61.5625C85.6908 61.2708 84.5658 60.8125 83.4825 60.1875C82.8575 59.8542 82.4617 59.3542 82.295 58.6875C82.17 58.0208 82.2533 57.3958 82.545 56.8125C84.17 53.4375 86.0242 50.2708 88.1075 47.3125C90.2325 44.3125 92.5033 41.3958 94.92 38.5625C96.8783 36.2708 98.8158 34 100.732 31.75C102.649 29.5 104.482 27.125 106.232 24.625C104.607 23.9167 102.899 23.3958 101.107 23.0625C99.3158 22.6875 97.5033 22.4792 95.67 22.4375C93.8783 22.3542 92.0658 22.3958 90.2325 22.5625C88.4408 22.7292 86.7117 22.9792 85.045 23.3125C84.3783 23.4375 83.7533 23.3542 83.17 23.0625C82.5867 22.7708 82.1908 22.2708 81.9825 21.5625C81.8158 20.9375 81.8783 20.3125 82.17 19.6875C82.5033 19.0208 83.0242 18.625 83.7325 18.5C85.9408 18.0833 88.2325 17.7917 90.6075 17.625C92.9825 17.4167 95.3575 17.4167 97.7325 17.625C100.107 17.7917 102.42 18.2083 104.67 18.875C106.962 19.5 109.107 20.3958 111.107 21.5625C111.691 21.8958 112.066 22.3958 112.232 23.0625C112.441 23.7292 112.378 24.3542 112.045 24.9375C110.087 27.9375 107.982 30.7708 105.732 33.4375C103.482 36.1042 101.212 38.7917 98.92 41.5C96.8783 43.9167 94.9408 46.375 93.1075 48.875C91.3158 51.375 89.67 54 88.17 56.75C89.67 57.125 91.2117 57.1875 92.795 56.9375C94.3783 56.6458 95.8992 56.2708 97.3575 55.8125C99.4825 55.1875 101.566 54.4583 103.607 53.625C105.649 52.75 107.732 51.9167 109.857 51.125Z" fill="#7F4B93"/>
</svg>
