<svg width="55" height="36" viewBox="0 0 55 36" fill="none" xmlns="http://www.w3.org/2000/svg">
<path d="M11.3349 25.3652C11.1995 25.6022 10.9879 25.763 10.7001 25.8477C10.4293 25.9323 10.1754 25.89 9.9384 25.7207C9.48137 25.3822 9.04126 25.0352 8.61809 24.6797C8.19491 24.3073 7.73788 23.9772 7.24699 23.6895C6.80689 23.4186 6.36678 23.1732 5.92668 22.9531C5.48658 22.7161 5.0634 22.4453 4.65715 22.1406C4.16626 21.7682 3.70923 21.362 3.28605 20.9219C3.26913 21.7682 3.27759 22.6146 3.31145 23.4609C3.3453 24.2904 3.39608 25.1283 3.46379 25.9746C3.49764 26.2624 3.40454 26.4993 3.18449 26.6855C2.96444 26.8887 2.72746 26.9902 2.47355 26.9902C2.16887 26.9902 1.93189 26.8887 1.76262 26.6855C1.59335 26.4993 1.49178 26.2624 1.45793 25.9746C1.35637 24.7559 1.29712 23.5625 1.2802 22.3945C1.26327 21.2096 1.28866 20.0163 1.35637 18.8145C1.22095 18.6283 1.08553 18.4421 0.950117 18.2559C0.8147 18.0527 0.687747 17.8496 0.569258 17.6465C0.467695 17.4434 0.425378 17.2487 0.442305 17.0625C0.476159 16.8763 0.543867 16.7155 0.64543 16.5801C0.763919 16.4447 0.899336 16.3346 1.05168 16.25C1.22095 16.1654 1.39868 16.1315 1.58488 16.1484C1.61874 15.7591 1.66105 15.3698 1.71184 14.9805C1.76262 14.5742 1.8134 14.1764 1.86418 13.7871C1.91496 13.5163 1.95728 13.2539 1.99113 13C2.04191 12.7292 2.08423 12.4583 2.11809 12.1875C2.15194 12.0521 2.16887 11.9251 2.16887 11.8066C2.18579 11.6882 2.21118 11.5612 2.24504 11.4258C2.24504 11.3581 2.26197 11.2734 2.29582 11.1719C2.31275 10.9518 2.32121 10.7402 2.32121 10.5371C2.32121 10.3171 2.32967 10.097 2.3466 9.87695C2.36353 9.60612 2.38892 9.31836 2.42277 9.01367C2.47355 8.69206 2.54126 8.38737 2.6259 8.09961C2.72746 7.79492 2.86288 7.51562 3.03215 7.26172C3.20142 7.00781 3.42993 6.81315 3.7177 6.67773C3.98853 6.55924 4.25936 6.49154 4.5302 6.47461C4.81796 6.45768 5.09725 6.47461 5.36809 6.52539C5.65585 6.57617 5.93514 6.65234 6.20598 6.75391C6.47681 6.83854 6.73918 6.93164 6.99309 7.0332C7.58553 7.25326 8.16952 7.50716 8.74504 7.79492C9.33749 8.06576 9.86223 8.42122 10.3193 8.86133C10.7594 9.30143 11.1402 9.82617 11.4618 10.4355C11.7835 11.028 11.9273 11.6458 11.8935 12.2891C11.8596 12.6784 11.775 13.0254 11.6396 13.3301C11.5211 13.6178 11.3518 13.9141 11.1318 14.2188C10.5901 14.9805 10.0061 15.7083 9.3798 16.4023C8.7535 17.0964 8.08488 17.7311 7.37395 18.3066C7.0354 18.5775 6.66301 18.8483 6.25676 19.1191C5.86743 19.39 5.45272 19.6185 5.01262 19.8047C5.16496 19.9401 5.3173 20.0755 5.46965 20.2109C5.62199 20.3464 5.7828 20.4648 5.95207 20.5664C6.39217 20.8542 6.83228 21.125 7.27238 21.3789C7.72941 21.6159 8.16952 21.8783 8.5927 22.166C8.99895 22.4538 9.39673 22.7585 9.78605 23.0801C10.1754 23.4017 10.5647 23.7064 10.954 23.9941C11.191 24.1465 11.3433 24.3496 11.4111 24.6035C11.4957 24.8574 11.4703 25.1113 11.3349 25.3652ZM4.47941 17.8242C4.88566 17.6042 5.2496 17.3757 5.57121 17.1387C5.90975 16.8848 6.23983 16.6139 6.56145 16.3262C6.89999 16.0215 7.23007 15.6999 7.55168 15.3613C7.87329 15.0228 8.18645 14.6842 8.49113 14.3457C8.60962 14.1934 8.71965 14.0579 8.82121 13.9395C8.92277 13.821 9.01587 13.7109 9.10051 13.6094C9.18514 13.4909 9.26978 13.3724 9.35441 13.2539C9.45598 13.1185 9.55754 12.9661 9.6591 12.7969C9.69296 12.7461 9.72681 12.6953 9.76066 12.6445C9.79452 12.5938 9.82837 12.543 9.86223 12.4922C9.87915 12.0182 9.77759 11.5781 9.55754 11.1719C9.26978 10.681 8.90585 10.2832 8.46574 9.97852C8.04257 9.67383 7.56861 9.41992 7.04387 9.2168C6.73918 9.08138 6.43449 8.96289 6.1298 8.86133C5.82512 8.75977 5.5035 8.66667 5.16496 8.58203C5.08033 8.54818 4.95337 8.51432 4.7841 8.48047C4.68254 8.51432 4.61483 8.5651 4.58098 8.63281C4.51327 8.85286 4.47941 9.00521 4.47941 9.08984C4.46249 9.14062 4.4371 9.23372 4.40324 9.36914C4.38632 9.53841 4.36939 9.67383 4.35246 9.77539C4.35246 9.86003 4.35246 9.95312 4.35246 10.0547C4.30168 11.2227 4.17473 12.3737 3.9716 13.5078C3.7854 14.6419 3.63306 15.793 3.51457 16.9609C3.48072 17.1471 3.45533 17.3418 3.4384 17.5449C3.4384 17.7311 3.42993 17.9173 3.41301 18.1035C3.56535 18.1204 3.64999 18.1204 3.66691 18.1035C3.85311 18.0697 3.99699 18.0358 4.09855 18.002C4.21704 17.9512 4.344 17.8919 4.47941 17.8242ZM14.4508 19.0938C14.2646 17.401 14.1377 15.7253 14.07 14.0664C14.0023 12.3906 13.8753 10.7148 13.6891 9.03906C13.6552 8.7513 13.7483 8.51432 13.9684 8.32812C14.2054 8.125 14.4508 8.02344 14.7047 8.02344C15.0094 8.02344 15.2464 8.125 15.4157 8.32812C15.5849 8.51432 15.6865 8.7513 15.7204 9.03906C15.8388 10.0547 15.9235 11.0618 15.9743 12.0605C16.042 13.0423 16.1012 14.041 16.152 15.0566C16.2197 16.5293 16.3467 18.0189 16.5329 19.5254C16.5498 19.7116 16.5667 19.9232 16.5836 20.1602C16.6175 20.3971 16.6429 20.5749 16.6598 20.6934C16.6937 20.9303 16.7275 21.1589 16.7614 21.3789C16.8121 21.599 16.8629 21.819 16.9137 22.0391C17.0153 22.4622 17.1253 22.8516 17.2438 23.207C17.3792 23.5456 17.5739 23.8333 17.8278 24.0703L18.0563 24.1973C18.1917 24.2311 18.3102 24.248 18.4118 24.248C18.5302 24.2311 18.6995 24.1888 18.9196 24.1211C19.1565 24.0365 19.3597 23.9349 19.5289 23.8164C19.986 23.5117 20.3753 23.1309 20.6969 22.6738C21.0185 22.2168 21.2978 21.7428 21.5348 21.252C21.8056 20.7103 22.0426 20.1517 22.2457 19.5762C22.4489 19.0007 22.6181 18.4167 22.7536 17.8242C23.0921 16.3346 23.236 14.8366 23.1852 13.3301C23.1513 11.8236 23.0413 10.3255 22.8551 8.83594C22.8213 8.5651 22.9144 8.32812 23.1344 8.125C23.3714 7.92188 23.6084 7.82031 23.8454 7.82031C24.15 7.82031 24.387 7.92188 24.5563 8.125C24.7256 8.32812 24.8271 8.5651 24.861 8.83594C25.081 10.4609 25.1995 12.1113 25.2164 13.7871C25.2334 15.446 25.0302 17.071 24.6071 18.6621C24.4547 19.2376 24.277 19.8301 24.0739 20.4395C23.8707 21.0488 23.6253 21.6413 23.3375 22.2168C23.0667 22.7754 22.7451 23.3171 22.3727 23.8418C22.0003 24.3496 21.5771 24.7897 21.1032 25.1621C20.6292 25.5345 20.1045 25.8307 19.5289 26.0508C18.9534 26.2708 18.3694 26.3216 17.777 26.2031C17.32 26.1185 16.9052 25.9238 16.5329 25.6191C16.1774 25.2975 15.8896 24.9421 15.6696 24.5527C15.2295 23.7064 14.9417 22.8177 14.8063 21.8867C14.6709 20.9388 14.5524 20.0078 14.4508 19.0938ZM28.6879 17.0371C28.417 17.071 28.18 16.9779 27.9769 16.7578C27.7907 16.5378 27.6976 16.3008 27.6976 16.0469C27.6976 15.7422 27.7907 15.5052 27.9769 15.3359C28.18 15.1667 28.4255 15.0651 28.7132 15.0312C28.8656 13.931 28.9587 12.8392 28.9925 11.7559C29.0433 10.6725 29.0856 9.58073 29.1195 8.48047C28.8994 8.41276 28.7132 8.30273 28.5609 8.15039C28.4255 7.98112 28.3578 7.76953 28.3578 7.51562C28.3578 7.26172 28.4509 7.02474 28.6371 6.80469C28.8402 6.56771 29.0856 6.46615 29.3734 6.5C29.9997 6.56771 30.626 6.64388 31.2523 6.72852C31.8955 6.79622 32.5303 6.88932 33.1566 7.00781C33.7998 7.1263 34.4261 7.27865 35.0355 7.46484C35.6618 7.65104 36.2543 7.88802 36.8129 8.17578C37.2022 8.36198 37.5661 8.60742 37.9046 8.91211C38.2601 9.19987 38.5479 9.52995 38.7679 9.90234C39.0049 10.2578 39.1488 10.6471 39.1996 11.0703C39.2673 11.4935 39.208 11.9336 39.0218 12.3906C38.6833 13.2201 38.2178 13.9225 37.6254 14.498C37.0498 15.0566 36.3558 15.5052 35.5433 15.8438C35.374 15.9284 35.2048 15.9961 35.0355 16.0469C34.8662 16.0977 34.697 16.1569 34.5277 16.2246C34.7816 16.36 35.044 16.5378 35.3148 16.7578C35.9073 17.2487 36.4235 17.8073 36.8636 18.4336C37.3037 19.043 37.6931 19.6947 38.0316 20.3887C38.2178 20.778 38.404 21.1758 38.5902 21.582C38.7933 21.9883 38.9033 22.4115 38.9203 22.8516C38.9372 23.3932 38.7679 23.8587 38.4125 24.248C38.0739 24.6204 37.6761 24.9082 37.2191 25.1113C36.0004 25.6361 34.7562 25.9408 33.4867 26.0254C32.2341 26.127 30.9561 26.1185 29.6527 26C29.4326 26.1185 29.1957 26.1608 28.9418 26.127C28.6879 26.11 28.4932 25.9915 28.3578 25.7715C28.2054 25.6868 28.0785 25.5768 27.9769 25.4414C27.8754 25.2891 27.8246 25.1113 27.8246 24.9082C27.8246 24.7897 27.8415 24.6797 27.8754 24.5781C27.9261 24.4596 27.9854 24.3581 28.0531 24.2734C28.0362 23.7487 28.07 23.2324 28.1546 22.7246C28.2393 22.1999 28.3239 21.6751 28.4086 21.1504C28.527 20.4733 28.5948 19.7962 28.6117 19.1191C28.6455 18.4251 28.6794 17.7396 28.7132 17.0625L28.6879 17.0371ZM31.1254 8.73438C31.0915 9.75 31.0492 10.7741 30.9984 11.8066C30.9645 12.8223 30.9222 13.8379 30.8714 14.8535C31.5147 14.7858 32.1579 14.6927 32.8011 14.5742C33.4613 14.4388 34.0876 14.2526 34.68 14.0156C34.917 13.931 35.1794 13.804 35.4671 13.6348C35.7718 13.4655 36.0004 13.3132 36.1527 13.1777C36.3897 12.9408 36.5674 12.7376 36.6859 12.5684C36.8213 12.3991 36.9652 12.1452 37.1175 11.8066C37.0837 11.8574 37.0752 11.8405 37.0921 11.7559C37.126 11.6712 37.1514 11.5951 37.1683 11.5273C37.1683 11.5104 37.1683 11.4766 37.1683 11.4258C37.1852 11.3581 37.1937 11.2988 37.1937 11.248C37.1429 11.0788 37.1006 10.9688 37.0668 10.918C37.0498 10.8672 37.0244 10.8249 36.9906 10.791C36.9906 10.7741 36.9567 10.7318 36.889 10.6641C36.8382 10.5964 36.7959 10.554 36.7621 10.5371C36.6774 10.4525 36.5843 10.3763 36.4828 10.3086C36.3474 10.224 36.195 10.1393 36.0257 10.0547C35.8734 9.95312 35.7295 9.87695 35.5941 9.82617C34.8832 9.53841 34.1468 9.3099 33.3851 9.14062C32.6403 8.97135 31.8871 8.83594 31.1254 8.73438ZM30.4652 21.125C30.3806 21.599 30.2875 22.0814 30.1859 22.5723C30.1013 23.0462 30.0589 23.5286 30.0589 24.0195C31.0915 24.1042 32.1156 24.1211 33.1312 24.0703C34.1638 24.0026 35.1709 23.7741 36.1527 23.3848C36.3558 23.3171 36.5589 23.2155 36.7621 23.0801C36.8467 22.9108 36.8721 22.7923 36.8382 22.7246C36.7536 22.4538 36.652 22.1999 36.5336 21.9629C36.432 21.709 36.305 21.4382 36.1527 21.1504C36.0173 20.8626 35.8734 20.5918 35.7211 20.3379C35.5687 20.0671 35.3994 19.8047 35.2132 19.5508L34.9593 19.2461L34.6546 18.8652C34.5362 18.7467 34.4007 18.6283 34.2484 18.5098C34.113 18.3743 34.003 18.2812 33.9183 18.2305C33.4274 17.875 32.9196 17.6042 32.3949 17.418C31.8701 17.2318 31.32 17.1133 30.7445 17.0625C30.7106 17.7396 30.6768 18.4167 30.6429 19.0938C30.626 19.7708 30.5668 20.4479 30.4652 21.125ZM40.2589 8.98828C39.9711 8.83594 39.8103 8.63281 39.7764 8.37891C39.7426 8.10807 39.7934 7.86263 39.9288 7.64258C40.0473 7.42253 40.2335 7.26172 40.4874 7.16016C40.7244 7.05859 40.9867 7.08398 41.2745 7.23633C42.1716 7.71029 42.9164 8.3112 43.5089 9.03906C44.1013 9.75 44.5922 10.5625 44.9815 11.4766C45.2354 12.069 45.4809 12.653 45.7178 13.2285C45.9718 13.804 46.2934 14.3372 46.6827 14.8281C47.309 14.2865 47.8761 13.6855 48.3839 13.0254C48.8917 12.3652 49.3656 11.6797 49.8057 10.9688C50.2458 10.2409 50.6606 9.50456 51.0499 8.75977C51.4561 8.01497 51.8624 7.29557 52.2686 6.60156C52.4379 6.33073 52.6495 6.17839 52.9034 6.14453C53.1742 6.11068 53.4197 6.16146 53.6397 6.29688C53.8598 6.41536 54.0206 6.60156 54.1221 6.85547C54.2237 7.09245 54.1899 7.35482 54.0206 7.64258C53.5805 8.38737 53.1404 9.14909 52.7003 9.92773C52.2771 10.6895 51.8285 11.4427 51.3546 12.1875C50.8975 12.9323 50.3982 13.6517 49.8565 14.3457C49.3318 15.0228 48.7478 15.6576 48.1046 16.25C48.0369 17.7904 47.9861 19.3223 47.9522 20.8457C47.9353 22.3522 47.9861 23.8757 48.1046 25.416C48.1215 25.6868 48.0199 25.9154 47.7999 26.1016C47.5798 26.3047 47.3428 26.4062 47.0889 26.4062C46.8012 26.4062 46.5642 26.3047 46.378 26.1016C46.1918 25.9154 46.0902 25.6868 46.0733 25.416C45.9718 24.028 45.921 22.6484 45.921 21.2773C45.9379 19.9062 45.9718 18.5267 46.0225 17.1387C45.8702 17.0371 45.7432 16.9102 45.6417 16.7578C45.0662 16.1315 44.6091 15.4714 44.2706 14.7773C43.932 14.0833 43.602 13.3555 43.2803 12.5938C42.9587 11.832 42.5609 11.1465 42.087 10.5371C41.63 9.91081 41.0206 9.39453 40.2589 8.98828Z" fill="#7F4B93"/>
<path d="M7.98185 33.92C7.65852 33.5967 7.41352 33.32 7.24685 33.09L7.01185 32.73C6.90185 32.5667 6.81519 32.445 6.75185 32.365C6.55519 32.5417 6.36019 32.705 6.16685 32.855C6.18019 33.1617 6.19685 33.4583 6.21685 33.745C6.22019 33.8283 6.19852 33.8933 6.15185 33.94C6.10519 33.9833 6.04852 34.0067 5.98185 34.01C5.91852 34.0133 5.86019 33.9967 5.80685 33.96C5.75352 33.9233 5.72352 33.865 5.71685 33.785C5.69685 33.4983 5.68185 33.2017 5.67185 32.895C5.61852 32.8117 5.61519 32.7267 5.66185 32.64C5.65185 32.26 5.64685 31.595 5.64685 30.645C5.64685 30.5617 5.67185 30.5 5.72185 30.46C5.77185 30.4167 5.83019 30.395 5.89685 30.395C5.96352 30.395 6.02185 30.4167 6.07185 30.46C6.12185 30.5 6.14685 30.5617 6.14685 30.645C6.14685 31.4283 6.14852 31.9533 6.15185 32.22C6.33519 32.0667 6.53185 31.8867 6.74185 31.68L7.23185 31.18L7.79685 30.58C7.85352 30.5233 7.91519 30.4967 7.98185 30.5C8.04852 30.5033 8.10519 30.5283 8.15185 30.575C8.20185 30.6183 8.23019 30.6717 8.23685 30.735C8.24685 30.7983 8.22352 30.86 8.16685 30.92C7.68352 31.4367 7.33185 31.8033 7.11185 32.02C7.19519 32.12 7.30185 32.2667 7.43185 32.46C7.55852 32.6567 7.63352 32.77 7.65685 32.8C7.80352 33.0067 8.02852 33.2633 8.33185 33.57C8.39185 33.6267 8.41852 33.6883 8.41185 33.755C8.40519 33.8183 8.37852 33.8733 8.33185 33.92C8.28519 33.9667 8.22852 33.9933 8.16185 34C8.09852 34.0067 8.03852 33.98 7.98185 33.92ZM10.5516 33.99C9.99162 34.0667 9.53662 33.935 9.18662 33.595C8.87995 33.295 8.71329 32.9017 8.68662 32.415C8.67662 32.1717 8.70662 31.9317 8.77662 31.695C8.84662 31.455 8.95495 31.2383 9.10162 31.045C9.24829 30.8517 9.42995 30.6983 9.64662 30.585C9.68995 30.4883 9.76329 30.4383 9.86662 30.435C9.88662 30.435 9.91995 30.4333 9.96662 30.43C10.01 30.4267 10.045 30.425 10.0716 30.425C10.1216 30.415 10.1733 30.4067 10.2266 30.4C10.2966 30.3867 10.3583 30.4017 10.4116 30.445C10.4383 30.4517 10.4633 30.4583 10.4866 30.465C10.5966 30.4917 10.705 30.54 10.8116 30.61C10.9183 30.6767 11.0016 30.7367 11.0616 30.79C11.115 30.84 11.185 30.9117 11.2716 31.005C11.6183 31.3783 11.8183 31.755 11.8716 32.135C11.915 32.4117 11.8883 32.6833 11.7916 32.95C11.695 33.22 11.5366 33.45 11.3166 33.64C11.0966 33.83 10.8416 33.9467 10.5516 33.99ZM10.4816 33.49C10.7716 33.45 11.005 33.3033 11.1816 33.05C11.3583 32.7933 11.425 32.5117 11.3816 32.205C11.3383 31.9317 11.1783 31.645 10.9016 31.345C10.7916 31.225 10.6983 31.135 10.6216 31.075C10.5383 31.0117 10.4533 30.9683 10.3666 30.945C10.3033 30.9317 10.2283 30.925 10.1416 30.925C9.93162 30.9817 9.75329 31.0833 9.60662 31.23C9.46329 31.3767 9.35495 31.55 9.28162 31.75C9.20829 31.95 9.17662 32.1617 9.18662 32.385C9.20662 32.745 9.32329 33.0283 9.53662 33.235C9.76995 33.4617 10.085 33.5467 10.4816 33.49ZM12.7404 33.775C12.7237 33.4417 12.7054 32.9317 12.6854 32.245C12.6787 32.2217 12.6754 32.1967 12.6754 32.17C12.6754 32.15 12.6787 32.13 12.6854 32.11C12.6687 31.5233 12.6487 31.05 12.6254 30.69C12.622 30.6067 12.6437 30.5433 12.6904 30.5C12.7404 30.4567 12.797 30.4333 12.8604 30.43C12.927 30.4233 12.987 30.44 13.0404 30.48C13.0937 30.5167 13.122 30.5767 13.1254 30.66C13.1454 30.9967 13.162 31.4167 13.1754 31.92C13.3754 31.92 13.6754 31.9217 14.0754 31.925C14.4754 31.9317 14.777 31.935 14.9804 31.935C14.9937 31.5317 15.0154 31.1033 15.0454 30.65C15.052 30.57 15.082 30.5117 15.1354 30.475C15.1887 30.4383 15.247 30.4217 15.3104 30.425C15.377 30.4283 15.4337 30.4533 15.4804 30.5C15.527 30.5433 15.5487 30.6067 15.5454 30.69C15.5087 31.2133 15.4837 31.7083 15.4704 32.175V32.21C15.4537 32.74 15.4504 33.2567 15.4604 33.76C15.4604 33.84 15.4354 33.9017 15.3854 33.945C15.3354 33.9883 15.277 34.01 15.2104 34.01C15.1437 34.0133 15.0854 33.995 15.0354 33.955C14.9854 33.915 14.9604 33.8533 14.9604 33.77C14.9504 33.3467 14.952 32.9017 14.9654 32.435C14.7654 32.435 14.4687 32.4317 14.0754 32.425C13.682 32.4217 13.387 32.42 13.1904 32.42C13.2037 32.8967 13.2204 33.3383 13.2404 33.745C13.2437 33.8283 13.2204 33.8917 13.1704 33.935C13.1237 33.9783 13.067 34.0017 13.0004 34.005C12.937 34.0083 12.8787 33.9917 12.8254 33.955C12.772 33.915 12.7437 33.855 12.7404 33.775ZM19.0213 34.59C19.008 34.32 19.0046 34.13 19.0113 34.02C18.9846 34.02 18.1896 34.0217 16.6263 34.025V34.07C16.6563 34.2967 16.6763 34.44 16.6863 34.5C16.6963 34.5633 16.683 34.62 16.6463 34.67C16.6063 34.7267 16.5563 34.7583 16.4963 34.765C16.4363 34.7717 16.3796 34.7583 16.3263 34.725C16.2763 34.6917 16.2463 34.6433 16.2363 34.58L16.1613 33.9C16.1446 33.87 16.1363 33.8383 16.1363 33.805C16.1363 33.7417 16.158 33.6883 16.2013 33.645C16.2446 33.5983 16.298 33.5733 16.3613 33.57H16.4163C16.6296 33.1667 16.7763 32.7167 16.8563 32.22C16.9363 31.7233 16.9463 31.2233 16.8863 30.72C16.873 30.6867 16.8663 30.6517 16.8663 30.615C16.8696 30.5517 16.8946 30.5 16.9413 30.46C16.988 30.4167 17.043 30.395 17.1063 30.395C17.1463 30.3983 17.4296 30.4 17.9563 30.4C18.1863 30.4 18.358 30.4017 18.4713 30.405H18.6413C18.6646 30.4083 18.683 30.41 18.6963 30.41C18.7063 30.41 18.7146 30.41 18.7213 30.41C18.728 30.4133 18.7346 30.415 18.7413 30.415C18.7713 30.4183 18.7996 30.43 18.8263 30.45C18.9796 30.55 19.0563 30.7317 19.0563 30.995C19.0563 31.0617 19.0513 31.14 19.0413 31.23C19.0346 31.3167 19.0313 31.3633 19.0313 31.37C19.0213 31.6733 19.0346 32.0667 19.0713 32.55L19.1113 33.03L19.1513 33.555L19.2263 33.55C19.283 33.55 19.333 33.5683 19.3763 33.605C19.423 33.6383 19.4513 33.6817 19.4613 33.735C19.4713 33.765 19.4763 33.795 19.4763 33.825C19.4663 34.085 19.468 34.34 19.4813 34.59C19.4813 34.6667 19.458 34.7233 19.4113 34.76C19.3646 34.8 19.3113 34.82 19.2513 34.82C19.1913 34.82 19.138 34.8 19.0913 34.76C19.0446 34.7233 19.0213 34.6667 19.0213 34.59ZM18.6963 33.57L18.6513 33.06C18.6346 32.84 18.6213 32.6817 18.6113 32.585C18.5746 32.0983 18.5613 31.69 18.5713 31.36C18.5713 31.3433 18.5763 31.285 18.5863 31.185C18.5963 31.1117 18.5996 31.05 18.5963 31C18.5963 30.9433 18.593 30.8983 18.5863 30.865C18.553 30.865 18.513 30.8633 18.4663 30.86H17.9563C17.603 30.8567 17.4046 30.855 17.3613 30.855C17.4446 31.8383 17.2996 32.74 16.9263 33.56C17.933 33.5733 18.523 33.5767 18.6963 33.57ZM20.5963 33.985C20.5463 34.0217 20.4897 34.035 20.4263 34.025C20.363 34.015 20.313 33.985 20.2763 33.935C20.2363 33.8783 20.223 33.8167 20.2363 33.75V33.74C20.263 33.4233 20.2797 33.0933 20.2863 32.75C20.2963 32.4033 20.293 32.0567 20.2763 31.71C20.2597 31.36 20.2297 31.02 20.1863 30.69C20.173 30.6167 20.1863 30.5583 20.2263 30.515C20.2663 30.4683 20.3163 30.4417 20.3763 30.435C20.4363 30.425 20.4913 30.435 20.5413 30.465C20.5913 30.495 20.623 30.5467 20.6363 30.62C20.7463 31.3733 20.7747 32.2467 20.7213 33.24C20.8747 33.0967 21.0213 32.9433 21.1613 32.78C21.3013 32.6167 21.4413 32.4333 21.5813 32.23L21.9313 31.705L22.3063 31.1L22.6563 30.525C22.6897 30.4717 22.7363 30.4383 22.7963 30.425C22.8597 30.4083 22.918 30.4167 22.9713 30.45C23.018 30.48 23.0497 30.52 23.0663 30.57C23.083 30.6167 23.0847 30.665 23.0713 30.715V30.73C23.068 30.94 23.0563 31.2 23.0363 31.51L22.9863 32.29C22.9763 32.4333 22.9697 32.59 22.9663 32.76C22.9663 32.93 22.973 33.1 22.9863 33.27C23.003 33.44 23.0263 33.5967 23.0563 33.74C23.073 33.8133 23.0613 33.8733 23.0213 33.92C22.9847 33.9667 22.9363 33.995 22.8763 34.005C22.8197 34.0183 22.7647 34.0117 22.7113 33.985C22.658 33.955 22.623 33.9033 22.6063 33.83C22.5597 33.61 22.5313 33.3483 22.5213 33.045C22.518 32.895 22.5147 32.7667 22.5113 32.66C22.5113 32.55 22.513 32.445 22.5163 32.345C22.523 32.2417 22.5297 32.1283 22.5363 32.005C22.5463 31.8783 22.558 31.7233 22.5713 31.54L22.1463 32.205C22.0263 32.3883 21.883 32.5917 21.7163 32.815C21.5497 33.0383 21.373 33.2433 21.1863 33.43C21.003 33.6133 20.8063 33.7983 20.5963 33.985ZM24.8125 33.76C24.8125 33.5033 24.8209 33.05 24.8375 32.4C24.8542 31.7533 24.8592 31.2633 24.8525 30.93V30.92L23.9125 30.89C23.8292 30.8867 23.7675 30.8583 23.7275 30.805C23.6909 30.7517 23.6725 30.6933 23.6725 30.63C23.6759 30.5633 23.6992 30.5067 23.7425 30.46C23.7859 30.41 23.8492 30.3867 23.9325 30.39C24.7525 30.42 25.5242 30.435 26.2475 30.435C26.3309 30.435 26.3925 30.46 26.4325 30.51C26.4759 30.56 26.4975 30.6183 26.4975 30.685C26.4975 30.7517 26.4759 30.81 26.4325 30.86C26.3925 30.91 26.3309 30.935 26.2475 30.935C25.9575 30.935 25.6592 30.9333 25.3525 30.93C25.3592 31.26 25.3542 31.75 25.3375 32.4C25.3209 33.05 25.3125 33.5033 25.3125 33.76C25.3125 33.8433 25.2875 33.9067 25.2375 33.95C25.1875 33.99 25.1292 34.01 25.0625 34.01C24.9959 34.01 24.9375 33.99 24.8875 33.95C24.8375 33.9067 24.8125 33.8433 24.8125 33.76ZM27.4728 34.025C27.4028 34.025 27.3428 34.0017 27.2928 33.955C27.2428 33.9083 27.2178 33.85 27.2178 33.78C27.2178 33.7533 27.2211 33.7283 27.2278 33.705C27.2045 33.5383 27.1845 33.3717 27.1678 33.205C27.1545 33.0383 27.1445 32.885 27.1378 32.745C27.1311 32.655 27.1261 32.5433 27.1228 32.41C27.1195 32.2767 27.1161 32.1483 27.1128 32.025C27.1128 31.8983 27.1128 31.8 27.1128 31.73V30.715C27.1128 30.6883 27.1161 30.6633 27.1228 30.64C27.1328 30.5767 27.1611 30.525 27.2078 30.485C27.2578 30.4417 27.3145 30.42 27.3778 30.42C27.5545 30.4233 28.2478 30.425 29.4578 30.425C29.5411 30.425 29.6028 30.45 29.6428 30.5C29.6861 30.55 29.7078 30.6083 29.7078 30.675C29.7078 30.7417 29.6861 30.8 29.6428 30.85C29.6028 30.9 29.5411 30.925 29.4578 30.925H27.6128V31.995C27.8328 31.9983 28.1445 31.9967 28.5478 31.99C28.9511 31.9833 29.2161 31.98 29.3428 31.98C29.4261 31.98 29.4878 32.005 29.5278 32.055C29.5711 32.105 29.5928 32.1633 29.5928 32.23C29.5928 32.2967 29.5711 32.355 29.5278 32.405C29.4878 32.455 29.4261 32.48 29.3428 32.48C29.2128 32.48 28.9495 32.4833 28.5528 32.49C28.1528 32.4967 27.8445 32.4983 27.6278 32.495C27.6411 32.855 27.6678 33.1967 27.7078 33.52C27.9111 33.52 28.2111 33.5167 28.6078 33.51C29.0045 33.5033 29.2995 33.5 29.4928 33.5C29.5761 33.5 29.6378 33.525 29.6778 33.575C29.7211 33.625 29.7428 33.6833 29.7428 33.75C29.7428 33.8167 29.7211 33.875 29.6778 33.925C29.6378 33.975 29.5761 34 29.4928 34C29.3128 34 28.9945 34.0033 28.5378 34.01C28.0778 34.0167 27.7228 34.0217 27.4728 34.025ZM30.6646 33.765C30.6613 33.5483 30.663 33.25 30.6696 32.87C30.673 32.49 30.6713 32.15 30.6646 31.85C30.6613 31.55 30.6446 31.2683 30.6146 31.005C30.5513 30.9617 30.5146 30.9017 30.5046 30.825C30.4946 30.7317 30.5263 30.655 30.5996 30.595C30.6396 30.5117 30.7046 30.465 30.7946 30.455C30.868 30.4417 30.933 30.46 30.9896 30.51L31.1296 30.485C31.313 30.4583 31.4646 30.44 31.5846 30.43C31.9713 30.4033 32.2913 30.4567 32.5446 30.59C32.698 30.67 32.828 30.7833 32.9346 30.93C33.0446 31.0733 33.118 31.2283 33.1546 31.395C33.198 31.5583 33.1863 31.7317 33.1196 31.915C33.0563 32.095 32.9396 32.2417 32.7696 32.355C32.6063 32.4617 32.428 32.53 32.2346 32.56C32.0446 32.5867 31.8563 32.5933 31.6696 32.58C31.4863 32.5667 31.3196 32.55 31.1696 32.53C31.163 33.21 31.1613 33.6183 31.1646 33.755C31.1646 33.835 31.1396 33.8967 31.0896 33.94C31.0396 33.9833 30.9813 34.005 30.9146 34.005C30.848 34.0083 30.7896 33.99 30.7396 33.95C30.6896 33.91 30.6646 33.8483 30.6646 33.765ZM31.1696 32.025C31.3196 32.045 31.4763 32.0633 31.6396 32.08C31.803 32.0933 31.958 32.0917 32.1046 32.075C32.2546 32.055 32.383 32.0083 32.4896 31.935C32.6463 31.835 32.7046 31.6883 32.6646 31.495C32.6446 31.4017 32.603 31.3133 32.5396 31.23C32.4763 31.1433 32.4013 31.0767 32.3146 31.03C32.148 30.9433 31.9163 30.91 31.6196 30.93C31.5096 30.9367 31.3713 30.9533 31.2046 30.98L31.1196 30.995C31.1463 31.2917 31.163 31.635 31.1696 32.025ZM35.0288 34.01C34.8021 33.9833 34.5905 33.9117 34.3938 33.795C34.1971 33.675 34.0305 33.5183 33.8938 33.325C33.7605 33.1317 33.6755 32.9083 33.6388 32.655C33.6188 32.495 33.6105 32.3367 33.6138 32.18C33.6171 32.0233 33.6405 31.8683 33.6838 31.715C33.7271 31.5583 33.7821 31.41 33.8488 31.27C33.9855 30.9767 34.1905 30.75 34.4638 30.59C34.7405 30.43 35.0621 30.36 35.4288 30.38C35.6888 30.4 35.9205 30.4833 36.1238 30.63C36.3271 30.7733 36.4888 30.9617 36.6088 31.195C36.6488 31.265 36.6571 31.33 36.6338 31.39C36.6105 31.4467 36.5705 31.49 36.5138 31.52C36.4571 31.5467 36.3971 31.555 36.3338 31.545C36.2705 31.5317 36.2205 31.49 36.1838 31.42C36.0005 31.0733 35.7355 30.89 35.3888 30.87C35.0988 30.8467 34.8471 30.9133 34.6338 31.07C34.4171 31.23 34.2638 31.445 34.1738 31.715C34.0871 31.985 34.0671 32.275 34.1138 32.585C34.1405 32.7617 34.2005 32.9167 34.2938 33.05C34.3871 33.1833 34.5021 33.2917 34.6388 33.375C34.7788 33.4583 34.9271 33.5083 35.0838 33.525C35.3238 33.555 35.5405 33.505 35.7338 33.375C35.9305 33.245 36.0621 33.0367 36.1288 32.75C36.1488 32.6733 36.1871 32.6217 36.2438 32.595C36.3005 32.565 36.3588 32.5583 36.4188 32.575C36.4821 32.5917 36.5321 32.625 36.5688 32.675C36.6088 32.725 36.6205 32.79 36.6038 32.87C36.5371 33.1433 36.4205 33.3717 36.2538 33.555C36.0871 33.7417 35.8988 33.8717 35.6888 33.945C35.4788 34.015 35.2588 34.0367 35.0288 34.01ZM37.7776 33.995C37.7076 33.9983 37.6459 33.9783 37.5926 33.935C37.5426 33.8883 37.5143 33.8317 37.5076 33.765C37.4976 33.6417 37.4893 33.505 37.4826 33.355C37.4793 33.205 37.4776 33.0817 37.4776 32.985C37.4743 32.9217 37.4709 32.835 37.4676 32.725C37.4676 32.615 37.4676 32.5083 37.4676 32.405C37.4676 32.2983 37.4676 32.2217 37.4676 32.175C37.4576 31.5417 37.4193 31.05 37.3526 30.7C37.3359 30.6167 37.3493 30.55 37.3926 30.5C37.4359 30.45 37.4893 30.42 37.5526 30.41C37.6193 30.4 37.6809 30.4117 37.7376 30.445C37.7943 30.475 37.8293 30.53 37.8426 30.61C37.9093 30.9433 37.9493 31.3717 37.9626 31.895C38.1626 31.8683 38.3393 31.85 38.4926 31.84C38.5926 31.8333 38.7059 31.835 38.8326 31.845C38.9626 31.855 39.0909 31.8767 39.2176 31.91C39.3476 31.94 39.4643 31.9833 39.5676 32.04C39.7109 32.1233 39.8259 32.2267 39.9126 32.35C39.9993 32.4733 40.0543 32.6033 40.0776 32.74C40.1009 32.8767 40.0926 33.01 40.0526 33.14C40.0026 33.3367 39.8993 33.51 39.7426 33.66C39.5893 33.81 39.4043 33.91 39.1876 33.96C38.8709 34.0333 38.4359 34.0333 37.8826 33.96C37.8493 33.98 37.8143 33.9917 37.7776 33.995ZM37.9926 33.47C38.4626 33.53 38.8243 33.53 39.0776 33.47C39.2009 33.4433 39.3059 33.3883 39.3926 33.305C39.4826 33.2183 39.5426 33.12 39.5726 33.01C39.6326 32.7833 39.5476 32.6067 39.3176 32.48C39.2076 32.4167 39.0726 32.375 38.9126 32.355C38.8059 32.3417 38.7059 32.335 38.6126 32.335C38.5226 32.335 38.4259 32.3417 38.3226 32.355C38.2226 32.365 38.1043 32.38 37.9676 32.4C37.9709 32.91 37.9793 33.2667 37.9926 33.47ZM43.1733 33.92C42.8499 33.5967 42.6049 33.32 42.4383 33.09L42.2033 32.73C42.0933 32.5667 42.0066 32.445 41.9433 32.365C41.7466 32.5417 41.5516 32.705 41.3583 32.855C41.3716 33.1617 41.3883 33.4583 41.4083 33.745C41.4116 33.8283 41.3899 33.8933 41.3433 33.94C41.2966 33.9833 41.2399 34.0067 41.1733 34.01C41.1099 34.0133 41.0516 33.9967 40.9983 33.96C40.9449 33.9233 40.9149 33.865 40.9083 33.785C40.8883 33.4983 40.8733 33.2017 40.8633 32.895C40.8099 32.8117 40.8066 32.7267 40.8533 32.64C40.8433 32.26 40.8383 31.595 40.8383 30.645C40.8383 30.5617 40.8633 30.5 40.9133 30.46C40.9633 30.4167 41.0216 30.395 41.0883 30.395C41.1549 30.395 41.2133 30.4167 41.2633 30.46C41.3133 30.5 41.3383 30.5617 41.3383 30.645C41.3383 31.4283 41.3399 31.9533 41.3433 32.22C41.5266 32.0667 41.7233 31.8867 41.9333 31.68L42.4233 31.18L42.9883 30.58C43.0449 30.5233 43.1066 30.4967 43.1733 30.5C43.2399 30.5033 43.2966 30.5283 43.3433 30.575C43.3933 30.6183 43.4216 30.6717 43.4283 30.735C43.4383 30.7983 43.4149 30.86 43.3583 30.92C42.8749 31.4367 42.5233 31.8033 42.3033 32.02C42.3866 32.12 42.4933 32.2667 42.6233 32.46C42.7499 32.6567 42.8249 32.77 42.8483 32.8C42.9949 33.0067 43.2199 33.2633 43.5233 33.57C43.5833 33.6267 43.6099 33.6883 43.6033 33.755C43.5966 33.8183 43.5699 33.8733 43.5233 33.92C43.4766 33.9667 43.4199 33.9933 43.3533 34C43.2899 34.0067 43.2299 33.98 43.1733 33.92ZM46.2859 33.85C46.1659 33.5467 46.0443 33.2417 45.9209 32.935C45.8976 32.9417 45.8743 32.945 45.8509 32.945C45.6976 32.945 45.4793 32.95 45.1959 32.96C44.9093 32.9733 44.7026 32.9817 44.5759 32.985C44.4593 33.275 44.3576 33.5583 44.2709 33.835C44.2443 33.9117 44.1993 33.9617 44.1359 33.985C44.0759 34.005 44.0143 34.005 43.9509 33.985C43.8909 33.9617 43.8443 33.9217 43.8109 33.865C43.7776 33.8083 43.7743 33.7417 43.8009 33.665C43.8609 33.4617 43.9309 33.2583 44.0109 33.055L44.2159 32.545L44.4609 31.975L44.6809 31.46C44.6909 31.4367 44.7159 31.3683 44.7559 31.255C44.7959 31.145 44.8309 31.055 44.8609 30.985C44.9076 30.865 44.9493 30.7683 44.9859 30.695C45.0093 30.6483 45.0309 30.6083 45.0509 30.575C45.0943 30.5117 45.1443 30.4667 45.2009 30.44C45.2943 30.3967 45.3843 30.41 45.4709 30.48C45.5143 30.51 45.5576 30.5717 45.6009 30.665C45.6343 30.7317 45.6743 30.8233 45.7209 30.94C45.7809 31.0933 45.8326 31.235 45.8759 31.365C46.1759 32.235 46.4659 32.9933 46.7459 33.64C46.7859 33.7167 46.7909 33.785 46.7609 33.845C46.7343 33.9017 46.6893 33.9433 46.6259 33.97C46.5659 33.9933 46.5026 33.9967 46.4359 33.98C46.3693 33.9633 46.3193 33.92 46.2859 33.85ZM44.7859 32.48C44.8193 32.48 44.8743 32.4783 44.9509 32.475C45.0309 32.4717 45.1193 32.4683 45.2159 32.465C45.3159 32.4583 45.4109 32.4533 45.5009 32.45C45.5943 32.4467 45.6709 32.445 45.7309 32.445L45.4059 31.525C45.3759 31.4383 45.3393 31.3417 45.2959 31.235C45.2793 31.285 45.2593 31.3417 45.2359 31.405L45.1759 31.565L45.1409 31.65L44.7859 32.48Z" fill="#7F4B93"/>
</svg>
