<svg width="1600" height="31" viewBox="0 0 1600 31" fill="none" xmlns="http://www.w3.org/2000/svg">
<path d="M772 24.1786C736 24.1786 638.729 3.28569 601.691 3.2857C557.189 3.28571 518.349 20.5719 481.507 20.5719C453.987 20.5719 436.42 14.4326 400.116 7.66404C363.813 0.895465 308.928 30.3051 267.783 28.9548C195.698 26.5892 203.812 3.28569 163.263 3.28569C120.371 3.28569 38.6876 24.1472 -0.836792 24.1472" stroke="#B884CB" stroke-width="4"/>
<path d="M-3 7.16258C37.2564 -5.3715 117.736 16.5202 154.772 16.2627C191.808 16.0051 217.327 7.1626 254.169 7.16258C281.69 7.16258 324.581 18.4392 361.178 20.0704C397.774 21.7015 445.339 5.81228 486.485 7.16258C558.569 9.52823 563.63 27.4096 604.18 27.4096C647.071 27.4096 729.5 7.78577 768.279 6.54806" stroke="#84B1CB" stroke-width="4"/>
<path d="M1602.5 20.5719C1562.24 33.1059 1447.54 3.28574 1410.5 3.28574C1366 3.28576 1290.35 20.5719 1253.51 20.5719C1225.99 20.5719 1208.42 14.4327 1172.12 7.66409C1135.81 0.895521 1086.65 25.4976 1045.5 24.1473C973.415 21.7817 975.812 3.28574 935.263 3.28574C892.371 3.28574 810.688 24.1473 771.163 24.1473" stroke="#B884CB" stroke-width="4"/>
<path d="M768 6.49997C831.5 4.57143 889.736 16.5201 926.772 16.2626C963.808 16.005 989.327 7.16253 1026.17 7.16252C1053.69 7.16251 1092.9 21.9046 1129.5 23.5357C1166.1 25.1669 1215.35 5.14972 1256.5 6.50001C1328.58 8.86566 1377.45 23.5357 1418 23.5357C1460.89 23.5357 1559.98 2 1599.5 2" stroke="#84B1CB" stroke-width="4"/>
</svg>
